<mxfile host="app.diagrams.net" agent="Mozilla/5.0 (Macintosh; Intel Mac OS X 10_15_7) AppleWebKit/537.36 (KHTML, like Gecko) Chrome/140.0.0.0 Safari/537.36" version="28.2.5">
  <diagram name="Page-1" id="xHt7pH_DVefM6_csHyh1">
    <mxGraphModel dx="1426" dy="1886" grid="1" gridSize="10" guides="1" tooltips="1" connect="1" arrows="1" fold="1" page="1" pageScale="1" pageWidth="827" pageHeight="1169" math="0" shadow="0">
      <root>
        <mxCell id="0" />
        <mxCell id="1" parent="0" />
        <mxCell id="v51oAMqETDp_tBKPPFhj-1" value="Plateau" style="swimlane;fontStyle=1;align=center;verticalAlign=top;childLayout=stackLayout;horizontal=1;startSize=26;horizontalStack=0;resizeParent=1;resizeParentMax=0;resizeLast=0;collapsible=1;marginBottom=0;whiteSpace=wrap;html=1;" vertex="1" parent="1">
          <mxGeometry x="370" y="20" width="210" height="170" as="geometry">
            <mxRectangle x="130" y="330" width="80" height="30" as="alternateBounds" />
          </mxGeometry>
        </mxCell>
        <mxCell id="v51oAMqETDp_tBKPPFhj-2" value="- cases : String&lt;div&gt;- timer : Date&lt;/div&gt;&lt;div&gt;- echecetmat : bool&lt;/div&gt;" style="text;strokeColor=none;fillColor=none;align=left;verticalAlign=top;spacingLeft=4;spacingRight=4;overflow=hidden;rotatable=0;points=[[0,0.5],[1,0.5]];portConstraint=eastwest;whiteSpace=wrap;html=1;" vertex="1" parent="v51oAMqETDp_tBKPPFhj-1">
          <mxGeometry y="26" width="210" height="54" as="geometry" />
        </mxCell>
        <mxCell id="v51oAMqETDp_tBKPPFhj-3" value="" style="line;strokeWidth=1;fillColor=none;align=left;verticalAlign=middle;spacingTop=-1;spacingLeft=3;spacingRight=3;rotatable=0;labelPosition=right;points=[];portConstraint=eastwest;strokeColor=inherit;" vertex="1" parent="v51oAMqETDp_tBKPPFhj-1">
          <mxGeometry y="80" width="210" height="8" as="geometry" />
        </mxCell>
        <mxCell id="v51oAMqETDp_tBKPPFhj-4" value="+ changerTour(Joueur): bool&lt;div&gt;+ resumerPartie(bool) : String&lt;/div&gt;" style="text;strokeColor=none;fillColor=none;align=left;verticalAlign=top;spacingLeft=4;spacingRight=4;overflow=hidden;rotatable=0;points=[[0,0.5],[1,0.5]];portConstraint=eastwest;whiteSpace=wrap;html=1;" vertex="1" parent="v51oAMqETDp_tBKPPFhj-1">
          <mxGeometry y="88" width="210" height="82" as="geometry" />
        </mxCell>
        <mxCell id="v51oAMqETDp_tBKPPFhj-5" value="Joueur" style="swimlane;fontStyle=1;align=center;verticalAlign=top;childLayout=stackLayout;horizontal=1;startSize=26;horizontalStack=0;resizeParent=1;resizeParentMax=0;resizeLast=0;collapsible=1;marginBottom=0;whiteSpace=wrap;html=1;" vertex="1" parent="1">
          <mxGeometry x="607" y="20" width="220" height="170" as="geometry" />
        </mxCell>
        <mxCell id="v51oAMqETDp_tBKPPFhj-6" value="- couleur: bool&lt;div&gt;- piÃ¨cesRestant: String&lt;/div&gt;&lt;div&gt;- tempsRestant : Date&lt;/div&gt;" style="text;strokeColor=none;fillColor=none;align=left;verticalAlign=top;spacingLeft=4;spacingRight=4;overflow=hidden;rotatable=0;points=[[0,0.5],[1,0.5]];portConstraint=eastwest;whiteSpace=wrap;html=1;" vertex="1" parent="v51oAMqETDp_tBKPPFhj-5">
          <mxGeometry y="26" width="220" height="54" as="geometry" />
        </mxCell>
        <mxCell id="v51oAMqETDp_tBKPPFhj-7" value="" style="line;strokeWidth=1;fillColor=none;align=left;verticalAlign=middle;spacingTop=-1;spacingLeft=3;spacingRight=3;rotatable=0;labelPosition=right;points=[];portConstraint=eastwest;strokeColor=inherit;" vertex="1" parent="v51oAMqETDp_tBKPPFhj-5">
          <mxGeometry y="80" width="220" height="8" as="geometry" />
        </mxCell>
        <mxCell id="v51oAMqETDp_tBKPPFhj-8" value="+ changerPieceCase(Pieces): String&lt;div&gt;+ finirTour : bool&lt;/div&gt;&lt;div&gt;+ Abandonner : bool&lt;/div&gt;" style="text;strokeColor=none;fillColor=none;align=left;verticalAlign=top;spacingLeft=4;spacingRight=4;overflow=hidden;rotatable=0;points=[[0,0.5],[1,0.5]];portConstraint=eastwest;whiteSpace=wrap;html=1;" vertex="1" parent="v51oAMqETDp_tBKPPFhj-5">
          <mxGeometry y="88" width="220" height="82" as="geometry" />
        </mxCell>
        <mxCell id="v51oAMqETDp_tBKPPFhj-9" value="Pieces" style="swimlane;fontStyle=1;align=center;verticalAlign=top;childLayout=stackLayout;horizontal=1;startSize=26;horizontalStack=0;resizeParent=1;resizeParentMax=0;resizeLast=0;collapsible=1;marginBottom=0;whiteSpace=wrap;html=1;" vertex="1" parent="1">
          <mxGeometry x="901" y="15" width="200" height="170" as="geometry" />
        </mxCell>
        <mxCell id="v51oAMqETDp_tBKPPFhj-10" value="- nomPiece: String Array&lt;div&gt;- couleur : String&lt;/div&gt;&lt;div&gt;- positionCase : String&lt;/div&gt;" style="text;strokeColor=none;fillColor=none;align=left;verticalAlign=top;spacingLeft=4;spacingRight=4;overflow=hidden;rotatable=0;points=[[0,0.5],[1,0.5]];portConstraint=eastwest;whiteSpace=wrap;html=1;" vertex="1" parent="v51oAMqETDp_tBKPPFhj-9">
          <mxGeometry y="26" width="200" height="64" as="geometry" />
        </mxCell>
        <mxCell id="v51oAMqETDp_tBKPPFhj-11" value="" style="line;strokeWidth=1;fillColor=none;align=left;verticalAlign=middle;spacingTop=-1;spacingLeft=3;spacingRight=3;rotatable=0;labelPosition=right;points=[];portConstraint=eastwest;strokeColor=inherit;" vertex="1" parent="v51oAMqETDp_tBKPPFhj-9">
          <mxGeometry y="90" width="200" height="8" as="geometry" />
        </mxCell>
        <mxCell id="v51oAMqETDp_tBKPPFhj-12" value="+ peutBouger() : bool&lt;div&gt;+ changerCase() : String&lt;br&gt;+ seFaireCapturer(): bool&lt;div&gt;+ Capturer() : bool&lt;/div&gt;&lt;/div&gt;" style="text;strokeColor=none;fillColor=none;align=left;verticalAlign=top;spacingLeft=4;spacingRight=4;overflow=hidden;rotatable=0;points=[[0,0.5],[1,0.5]];portConstraint=eastwest;whiteSpace=wrap;html=1;" vertex="1" parent="v51oAMqETDp_tBKPPFhj-9">
          <mxGeometry y="98" width="200" height="72" as="geometry" />
        </mxCell>
        <mxCell id="v51oAMqETDp_tBKPPFhj-14" value="Timer" style="swimlane;fontStyle=1;align=center;verticalAlign=top;childLayout=stackLayout;horizontal=1;startSize=26;horizontalStack=0;resizeParent=1;resizeParentMax=0;resizeLast=0;collapsible=1;marginBottom=0;whiteSpace=wrap;html=1;" vertex="1" parent="1">
          <mxGeometry x="80" y="20" width="220" height="170" as="geometry" />
        </mxCell>
        <mxCell id="v51oAMqETDp_tBKPPFhj-15" value="- config: String&lt;div&gt;- tempsJoueurBlanc : Date&lt;/div&gt;&lt;div&gt;- tempsJoueurNoir : Date&lt;/div&gt;&lt;div&gt;- timerRun : bool&lt;/div&gt;" style="text;strokeColor=none;fillColor=none;align=left;verticalAlign=top;spacingLeft=4;spacingRight=4;overflow=hidden;rotatable=0;points=[[0,0.5],[1,0.5]];portConstraint=eastwest;whiteSpace=wrap;html=1;" vertex="1" parent="v51oAMqETDp_tBKPPFhj-14">
          <mxGeometry y="26" width="220" height="74" as="geometry" />
        </mxCell>
        <mxCell id="v51oAMqETDp_tBKPPFhj-16" value="" style="line;strokeWidth=1;fillColor=none;align=left;verticalAlign=middle;spacingTop=-1;spacingLeft=3;spacingRight=3;rotatable=0;labelPosition=right;points=[];portConstraint=eastwest;strokeColor=inherit;" vertex="1" parent="v51oAMqETDp_tBKPPFhj-14">
          <mxGeometry y="100" width="220" height="8" as="geometry" />
        </mxCell>
        <mxCell id="v51oAMqETDp_tBKPPFhj-17" value="+ lancerTimer(bool) : bool&lt;br&gt;+ finTimer (Date = 00:00): bool" style="text;strokeColor=none;fillColor=none;align=left;verticalAlign=top;spacingLeft=4;spacingRight=4;overflow=hidden;rotatable=0;points=[[0,0.5],[1,0.5]];portConstraint=eastwest;whiteSpace=wrap;html=1;" vertex="1" parent="v51oAMqETDp_tBKPPFhj-14">
          <mxGeometry y="108" width="220" height="62" as="geometry" />
        </mxCell>
        <mxCell id="v51oAMqETDp_tBKPPFhj-19" value="" style="endArrow=diamond;html=1;rounded=0;exitX=1;exitY=0.5;exitDx=0;exitDy=0;entryX=0.005;entryY=0.685;entryDx=0;entryDy=0;entryPerimeter=0;startArrow=classicThin;startFill=1;endFill=0;" edge="1" parent="1" source="v51oAMqETDp_tBKPPFhj-15" target="v51oAMqETDp_tBKPPFhj-2">
          <mxGeometry width="50" height="50" relative="1" as="geometry">
            <mxPoint x="720" y="70" as="sourcePoint" />
            <mxPoint x="770" y="20" as="targetPoint" />
          </mxGeometry>
        </mxCell>
        <mxCell id="v51oAMqETDp_tBKPPFhj-20" value="" style="endArrow=openThin;html=1;rounded=0;exitX=1;exitY=0.5;exitDx=0;exitDy=0;entryX=0;entryY=0.5;entryDx=0;entryDy=0;startArrow=diamond;startFill=1;endFill=0;" edge="1" parent="1" source="v51oAMqETDp_tBKPPFhj-6" target="v51oAMqETDp_tBKPPFhj-10">
          <mxGeometry width="50" height="50" relative="1" as="geometry">
            <mxPoint x="840" y="160" as="sourcePoint" />
            <mxPoint x="890" y="110" as="targetPoint" />
          </mxGeometry>
        </mxCell>
        <mxCell id="v51oAMqETDp_tBKPPFhj-21" value="Partie" style="swimlane;fontStyle=1;align=center;verticalAlign=top;childLayout=stackLayout;horizontal=1;startSize=26;horizontalStack=0;resizeParent=1;resizeParentMax=0;resizeLast=0;collapsible=1;marginBottom=0;whiteSpace=wrap;html=1;" vertex="1" parent="1">
          <mxGeometry x="470" y="-330" width="250" height="188" as="geometry" />
        </mxCell>
        <mxCell id="v51oAMqETDp_tBKPPFhj-28" value="&amp;lt;&amp;lt;abstract&amp;gt;&amp;gt;" style="text;html=1;strokeColor=none;fillColor=none;align=center;verticalAlign=middle;spacingLeft=4;spacingRight=4;overflow=hidden;rotatable=0;points=[[0,0.5],[1,0.5]];portConstraint=eastwest;whiteSpace=wrap;" vertex="1" parent="v51oAMqETDp_tBKPPFhj-21">
          <mxGeometry y="26" width="250" height="25" as="geometry" />
        </mxCell>
        <mxCell id="v51oAMqETDp_tBKPPFhj-22" value="- pret : bool&lt;br&gt;- enCours: bool&lt;div&gt;- configurer: bool&lt;/div&gt;&lt;div&gt;- echecEtMat :bool&lt;/div&gt;&lt;div&gt;- abandonner : bool&lt;/div&gt;" style="text;strokeColor=none;fillColor=none;align=left;verticalAlign=top;spacingLeft=4;spacingRight=4;overflow=hidden;rotatable=0;points=[[0,0.5],[1,0.5]];portConstraint=eastwest;whiteSpace=wrap;html=1;" vertex="1" parent="v51oAMqETDp_tBKPPFhj-21">
          <mxGeometry y="51" width="250" height="79" as="geometry" />
        </mxCell>
        <mxCell id="v51oAMqETDp_tBKPPFhj-23" value="" style="line;strokeWidth=1;fillColor=none;align=left;verticalAlign=middle;spacingTop=-1;spacingLeft=3;spacingRight=3;rotatable=0;labelPosition=right;points=[];portConstraint=eastwest;strokeColor=inherit;" vertex="1" parent="v51oAMqETDp_tBKPPFhj-21">
          <mxGeometry y="130" width="250" height="8" as="geometry" />
        </mxCell>
        <mxCell id="v51oAMqETDp_tBKPPFhj-24" value="+ configurerPartie(bool): String&lt;div&gt;+ lancerPartie(bool) : bool&lt;/div&gt;" style="text;strokeColor=none;fillColor=none;align=left;verticalAlign=top;spacingLeft=4;spacingRight=4;overflow=hidden;rotatable=0;points=[[0,0.5],[1,0.5]];portConstraint=eastwest;whiteSpace=wrap;html=1;" vertex="1" parent="v51oAMqETDp_tBKPPFhj-21">
          <mxGeometry y="138" width="250" height="50" as="geometry" />
        </mxCell>
        <mxCell id="v51oAMqETDp_tBKPPFhj-29" value="" style="endArrow=block;html=1;rounded=0;entryX=0.524;entryY=1.04;entryDx=0;entryDy=0;entryPerimeter=0;edgeStyle=orthogonalEdgeStyle;endFill=0;exitX=0.5;exitY=0;exitDx=0;exitDy=0;" edge="1" parent="1" source="v51oAMqETDp_tBKPPFhj-1" target="v51oAMqETDp_tBKPPFhj-24">
          <mxGeometry width="50" height="50" relative="1" as="geometry">
            <mxPoint x="517" y="7" as="sourcePoint" />
            <mxPoint x="770" y="-60" as="targetPoint" />
            <Array as="points">
              <mxPoint x="475" y="-61" />
              <mxPoint x="601" y="-61" />
            </Array>
          </mxGeometry>
        </mxCell>
        <mxCell id="v51oAMqETDp_tBKPPFhj-30" value="" style="endArrow=block;html=1;rounded=0;entryX=0.524;entryY=1.04;entryDx=0;entryDy=0;entryPerimeter=0;edgeStyle=orthogonalEdgeStyle;endFill=0;exitX=0.5;exitY=0;exitDx=0;exitDy=0;" edge="1" parent="1" source="v51oAMqETDp_tBKPPFhj-5" target="v51oAMqETDp_tBKPPFhj-24">
          <mxGeometry width="50" height="50" relative="1" as="geometry">
            <mxPoint x="610" as="sourcePoint" />
            <mxPoint x="601" y="-140" as="targetPoint" />
            <Array as="points">
              <mxPoint x="717" y="-61" />
              <mxPoint x="601" y="-61" />
            </Array>
          </mxGeometry>
        </mxCell>
      </root>
    </mxGraphModel>
  </diagram>
</mxfile>
